<svg id="Layer_1" data-name="Layer 1" xmlns="http://www.w3.org/2000/svg" viewBox="0 0 337.1 129.57"><defs><style>.cls-1{fill:#fff;}.cls-1,.cls-2{stroke:#000;stroke-miterlimit:10;}.cls-2{fill:none;}.cls-3{font-size:12px;font-family:MyriadPro-Regular, Myriad Pro;}.cls-4{fill:#202020;}</style></defs><title>4</title><circle class="cls-1" cx="14.67" cy="18.84" r="14.17"/><circle class="cls-1" cx="110.84" cy="18.84" r="14.17"/><circle class="cls-1" cx="14.67" cy="111.93" r="14.17"/><circle class="cls-1" cx="110.84" cy="111.93" r="14.17"/><line class="cls-2" x1="14.67" y1="33.01" x2="14.67" y2="97.76"/><line class="cls-2" x1="28.85" y1="111.93" x2="96.67" y2="111.93"/><line class="cls-2" x1="110.84" y1="97.76" x2="110.84" y2="33.01"/><line class="cls-2" x1="96.67" y1="18.84" x2="28.85" y2="18.84"/><line class="cls-2" x1="23.45" y1="29.96" x2="100.74" y2="101.99"/><line class="cls-2" x1="100.46" y1="28.49" x2="24.81" y2="102.03"/><text class="cls-3" transform="translate(11.6 21.96)">0</text><text class="cls-3" transform="translate(107.76 21.96)">1</text><text class="cls-3" transform="translate(107.76 114.49)">2</text><text class="cls-3" transform="translate(11.6 114.49)">3</text><text class="cls-3" transform="translate(58.68 10.04)">5</text><text class="cls-3" transform="translate(1.62 65.82)">1</text><text class="cls-3" transform="translate(116.16 65.82)">1</text><text class="cls-3" transform="translate(41.22 39.42)">2</text><text class="cls-3" transform="translate(85.5 54.32)">2</text><text class="cls-3" transform="translate(61.66 125.98)">1</text><circle class="cls-1" cx="226.26" cy="19.43" r="14.17"/><circle class="cls-1" cx="322.42" cy="19.43" r="14.17"/><circle class="cls-1" cx="226.26" cy="112.52" r="14.17"/><circle class="cls-1" cx="322.42" cy="112.52" r="14.17"/><line class="cls-2" x1="226.26" y1="33.6" x2="226.26" y2="98.35"/><line class="cls-2" x1="240.43" y1="112.52" x2="308.25" y2="112.52"/><line class="cls-2" x1="322.42" y1="98.35" x2="322.42" y2="33.6"/><text class="cls-3" transform="translate(223.18 22.55)">0</text><text class="cls-3" transform="translate(319.35 22.55)">1</text><text class="cls-3" transform="translate(319.35 115.08)">2</text><text class="cls-3" transform="translate(223.18 115.08)">3</text><text class="cls-3" transform="translate(214.93 65.82)">1</text><text class="cls-3" transform="translate(327.74 66.41)">1</text><text class="cls-3" transform="translate(273.24 126.57)">1</text><polygon class="cls-4" points="192.41 65.26 176.54 81.13 172.05 81.13 186.34 66.84 168.67 66.84 148.19 66.84 148.19 63.67 168.67 63.67 186.34 63.67 172.05 49.39 176.54 49.39 192.41 65.26"/></svg>